<svg enable-background="new 0 0 918 1080" viewBox="0 0 918 1080" xmlns="http://www.w3.org/2000/svg"><g fill="#26a4dd"><path d="m207.7 526.8h502.5v38.9h-502.5z"/><path d="m514.8 411.9c10.9-4.4 16.6-18.6 11.1-29.4-3.5-7-11.2-11.8-19.2-11.7-13.9.1-25.5 16.6-19.2 30.2 4.5 9.8 17.2 14.9 27.3 10.9z"/><path d="m207.7 787.2h502.5v38.9h-502.5z"/><path d="m432 0c-40 162-432 229-432 612.4 0 223 189 467.6 459 467.6 253.3-4.7 459.1-214.3 459-467.6 0-409.9-430.4-444.5-486-612.4zm-253.5 512.2c.5-3.8 1.6-7.7 4.3-10.4s6.5-3.8 10.3-4.3h256.3l28.1-64.9c-10.8-7.9-18.7-19.8-20.6-33.2-4-27.2 17.5-55.7 46.4-57.7 1.3-.1 2.6-.1 3.9-.1 3.1 0 6.2.4 9.3 1l24.9-57.5c.9-1.9 1.2-2.4 2-3.3 2.5-3.2 6.4-5.2 10.4-5.5 1.2-.1 1.5 0 1.9 0 9.1.7 16.3 10.6 12.8 19.8-.1.2-.2.4-.2.6l-25.9 59.8c7.2 7.1 12.4 16.2 14.3 26.3 5.3 28.5-18 59.5-49.3 59.7-.7 0-1.4 0-2.2 0l-23.8 55h243.6c1.2.1 2.5.3 3.8.5 2.3 1 4.8 2 6.6 3.8 2.7 2.7 3.8 6.5 4.3 10.4v68.1c-.3 2.5-.7 5.1-1.9 7.3-2 3.3-5.3 5.8-8.9 6.8-1.2.3-2.5.3-3.8.5h-532c-2.5-.3-5.1-.7-7.3-1.9-3.4-1.9-5.8-5.2-6.8-8.9-.3-1.2-.3-2.5-.5-3.8zm41.3 190.9c3.2-2 4.3-1.8 7.9-2.3h462.6c1.4.2 2.7.4 4.1.6 3.3 1.5 4.5 1.6 6.9 4.5 5.4 6.3 3.9 17.3-3.2 21.9-3.2 2-4.3 1.8-7.9 2.3h-121-341.5c-1.4-.2-2.8-.2-4.1-.6-6.8-2-11.3-9.2-10.3-16.1.5-4.3 3-8.1 6.5-10.3zm1.4-54.4c3.4-2.5 4.4-2.6 9.1-2.6 29-.4 56-15.9 83.8-21.9 9.8-2.1 19.9-3.2 29.9-3.2 25.6.2 50.4 9.3 74 17.7 20.4 7.1 42.2 9.8 63.4 4.7 22.7-5.4 43.9-16.2 66.8-20.3 29.5-5.3 59.8 1.6 88.4 11.7 16.7 5.8 34.7 7.7 52.4 7.7l4.1.7c3.2 1.7 4.4 1.8 6.6 4.9 4.8 6.7 1.7 18-6.7 20.8-2.3.8-4.8.7-7.2.6-19.6-.2-39.2-2.6-57.9-9.2-16.4-5.8-33.1-11.5-50.3-12.3-13.9-.7-27.8 1.6-41.2 5.6-24.2 7.3-47.7 18.2-72.9 19.5-14.8.8-29.7-1.4-44-5.7-23.6-7.2-46.3-18.2-70.9-19.4-13.9-.7-27.8 1.6-41.2 5.6-25.9 7.9-50.8 19.3-78.6 19.4l-4.1-.7c-3.2-1.7-4.4-1.8-6.6-4.9-3.8-5.4-2.6-14.5 3.1-18.7zm518.3 192c-.5 3.8-1.6 7.7-4.3 10.4s-6.5 3.8-10.3 4.3h-531.8c-6.4-.8-12.4-4.5-14.1-10.8-.3-1.2-.3-2.5-.5-3.8v-68.1c.3-2.5.7-5.1 1.9-7.3 2-3.3 5.3-5.8 8.9-6.8 1.2-.3 2.5-.3 3.8-.5h531.7c1.2.1 2.5.3 3.8.5 2.3 1 4.8 2 6.6 3.8 2.7 2.7 3.8 6.5 4.3 10.4z"/></g></svg>